<svg width="512" height="512" viewBox="0 0 512 512" fill="none" xmlns="http://www.w3.org/2000/svg" role="img" aria-label="Appalachia Devs">
  <defs>
    <linearGradient id="g" x1="80" y1="120" x2="420" y2="420" gradientUnits="userSpaceOnUse">
      <stop stop-color="#2EC9FF"/>
      <stop offset="1" stop-color="#7CF0A8"/>
    </linearGradient>
    <filter id="s" x="-20%" y="-20%" width="140%" height="140%">
      <feDropShadow dx="0" dy="10" stdDeviation="18" flood-color="#000" flood-opacity="0.25"/>
    </filter>
  </defs>

  <rect x="48" y="48" width="416" height="416" rx="96" fill="#0b1220"/>

  <!-- Mountain mark -->
  <g filter="url(#s)">
    <path d="M120 332L224 188L272 252L304 216L392 332H120Z" fill="url(#g)" opacity="0.92"/>
    <path d="M224 188L182 262L224 245L256 284L272 252L304 216L332 262L392 332H120L154 292L182 262L224 188Z" fill="#ffffff" opacity="0.08"/>
    <path d="M164 360H348" stroke="url(#g)" stroke-width="18" stroke-linecap="round" opacity="0.95"/>
    <circle cx="214" cy="360" r="9" fill="#2EC9FF"/>
    <circle cx="298" cy="360" r="9" fill="#7CF0A8"/>
  </g>

  <!-- Wordmark (simple) -->
  <g opacity="0.92">
    <text x="256" y="430" text-anchor="middle" font-family="system-ui, -apple-system, Segoe UI, Roboto, Arial, sans-serif" font-size="40" font-weight="700" fill="url(#g)">
      Appalachia Devs
    </text>
  </g>
</svg>

